<?xml version="1.0" encoding="UTF-8"?> <svg xmlns="http://www.w3.org/2000/svg" width="24" height="24" viewBox="0 0 24 24" fill="none"><path d="M18.0536 11.1171C19.6899 11.4602 20.7456 13.0437 20.4025 14.6801C20.0594 16.3164 18.4759 17.3721 16.8396 17.029C15.2297 16.6859 14.1476 15.1023 14.4643 13.4924C14.781 11.8825 16.3381 10.8004 17.948 11.1171C18.0008 11.0643 18.0008 11.0643 18.0536 11.1171Z" fill="#E85028"></path><path d="M11.7993 15.8944C12.7494 16.1319 13.3564 17.0557 13.2244 18.0058C13.0397 18.9559 12.0632 19.5893 11.1131 19.3782C10.1629 19.1934 9.55593 18.2697 9.68789 17.2668C9.92542 16.3167 10.8491 15.7097 11.7993 15.8944Z" fill="#E85028"></path><path d="M14.254 7.34283C14.9138 7.50118 15.3361 8.1082 15.2041 8.768C15.0458 9.4278 14.4387 9.85007 13.7789 9.71811C13.1191 9.55976 12.6969 8.95274 12.8288 8.29294C12.9608 7.65953 13.6206 7.23726 14.254 7.34283Z" fill="#E85028"></path><path d="M12.1682 1.06148C13.3822 2.01159 13.6197 3.75347 12.6696 5.02029C11.6931 6.28711 9.97763 6.47185 8.71081 5.52174C7.49677 4.57162 7.25924 2.82975 8.20936 1.61571C9.13308 0.375282 10.9014 0.137753 12.1682 1.06148C12.1154 1.06148 12.1154 1.06148 12.1682 1.06148Z" fill="#E85028"></path><path d="M7.70843 19.3779C8.73772 20.46 8.71133 22.1491 7.62925 23.1256C6.54718 24.1549 4.88447 24.1285 3.88158 23.0464C2.85228 21.9643 2.87868 20.2752 3.96075 19.2987C5.04283 18.2694 6.67914 18.3222 7.70843 19.3779Z" fill="#E85028"></path></svg> 